<svg width="19" height="18" viewBox="0 0 19 18" fill="none" xmlns="http://www.w3.org/2000/svg">
<path d="M9.51264 -0.000654666C9.45151 0.000298826 9.39145 0.0158158 9.33724 0.0446576L1.10202 4.44464C1.03863 4.47859 0.985561 4.52959 0.948567 4.59211C0.911572 4.65464 0.892063 4.7263 0.892154 4.79932V5.99932C0.892164 6.1054 0.933483 6.20714 1.00702 6.28215C1.08056 6.35716 1.1803 6.39931 1.28431 6.39932H1.67646V6.95947C1.67646 7.44423 2.0154 7.85732 2.46077 7.96806V15.204H1.32337L1.38847 15.2094C0.905331 15.1265 0.5 15.5492 0.5 16.0118V17.111C0.5 17.5831 0.866292 17.9993 1.32337 17.9993H17.6766C18.1337 17.9993 18.5 17.6142 18.5 17.1516V16.0524C18.5 15.5898 18.1337 15.204 17.6766 15.204H16.5783V7.96806C17.0237 7.85732 17.3626 7.44423 17.3626 6.95947V6.39932H17.7548C17.8588 6.39931 17.9585 6.35716 18.032 6.28215C18.1056 6.20714 18.1469 6.1054 18.1469 5.99932V4.79932C18.147 4.7263 18.1275 4.65464 18.0905 4.59211C18.0535 4.52959 18.0004 4.47859 17.937 4.44464L9.70182 0.0446576C9.64349 0.0136046 9.57843 -0.00197782 9.51264 -0.000654666ZM9.51953 0.851685L17.3626 5.04151V5.59932H17.0363C16.994 5.59218 16.9508 5.59218 16.9084 5.59932H13.1094C13.0874 5.59557 13.0651 5.59374 13.0428 5.59385C13.0238 5.59427 13.0048 5.5961 12.9861 5.59932H11.5462C11.5038 5.59218 11.4606 5.59218 11.4183 5.59932H7.61927C7.59725 5.59557 7.57496 5.59374 7.55264 5.59385C7.53364 5.59427 7.5147 5.5961 7.49596 5.59932H6.05602C6.01367 5.59218 5.97046 5.59218 5.92811 5.59932H2.12912C2.1071 5.59557 2.08481 5.59374 2.06249 5.59385C2.04349 5.59427 2.02455 5.5961 2.00581 5.59932H1.67646V5.04151L9.51953 0.851685ZM2.46077 6.39932H5.598V6.95947C5.598 7.11206 5.51246 7.19931 5.36286 7.19931H2.69591C2.54631 7.19931 2.46077 7.11206 2.46077 6.95947V6.39932ZM6.3823 6.39932H7.16661V6.95947C7.16661 7.44423 7.50555 7.85732 7.95092 7.96806V15.204H5.598V7.96806C6.04337 7.85732 6.3823 7.44423 6.3823 6.95947V6.39932ZM7.95092 6.39932H11.0881V6.95947C11.0881 7.11206 11.0026 7.19931 10.853 7.19931H8.18606C8.03646 7.19931 7.95092 7.11206 7.95092 6.95947V6.39932ZM11.8725 6.39932H12.6568V6.95947C12.6568 7.44423 12.9957 7.85732 13.4411 7.96806V15.204H11.0881V7.96806C11.5335 7.85732 11.8725 7.44423 11.8725 6.95947V6.39932ZM13.4411 6.39932H16.5783V6.95947C16.5783 7.11206 16.4928 7.19931 16.3432 7.19931H13.6762C13.5266 7.19931 13.4411 7.11206 13.4411 6.95947V6.39932ZM3.24507 7.99931H4.81369V15.1993H3.24507V7.99931ZM8.73522 7.99931H10.3038V15.1993H8.73522V7.99931ZM14.2254 7.99931H15.794V15.1993H14.2254V7.99931ZM1.27818 16.0008C1.29317 16.0028 1.30826 16.0038 1.32337 16.004H17.6766C17.6901 16.004 17.7157 16.0262 17.7157 16.0524V17.1516C17.7157 17.1778 17.6901 17.1993 17.6766 17.1993H1.32337C1.30986 17.1993 1.28431 17.2085 1.28431 17.111V16.0118C1.28431 16.0025 1.28091 16.0024 1.27818 16.0008Z" fill="#F7F7F7"/>
</svg>
