<svg width="19" height="18" viewBox="0 0 19 18" fill="none" xmlns="http://www.w3.org/2000/svg">
<path d="M0.960847 6.23794C1.47067 6.23794 1.74516 5.95351 1.74516 5.43361V3.1186C1.74516 2.09848 2.29418 1.57859 3.27459 1.57859H5.64709C6.15692 1.57859 6.44124 1.29407 6.44124 0.784009C6.44124 0.283742 6.15692 -0.000732422 5.64709 -0.000732422H3.24514C1.20597 -0.000732422 0.166748 1.00964 0.166748 3.03034V5.43361C0.166748 5.95351 0.451066 6.23794 0.960847 6.23794ZM17.3726 6.23794C17.8921 6.23794 18.1667 5.95351 18.1667 5.43361V3.03034C18.1667 1.00964 17.1471 -0.000732422 15.0883 -0.000732422H12.6961C12.1765 -0.000732422 11.8922 0.283742 11.8922 0.784009C11.8922 1.29407 12.1765 1.57859 12.6961 1.57859H15.0687C16.0294 1.57859 16.5883 2.09848 16.5883 3.1186V5.43361C16.5883 5.95351 16.8726 6.23794 17.3726 6.23794ZM8.74514 8.15079V4.72734C8.74514 4.49192 8.55888 4.29572 8.31375 4.29572H4.90202C4.65694 4.29572 4.47063 4.49192 4.47063 4.72734V8.15079C4.47063 8.38621 4.65694 8.57258 4.90202 8.57258H8.31375C8.55888 8.57258 8.74514 8.38621 8.74514 8.15079ZM10.4412 5.14914H13.0098V7.71916H10.4412V5.14914ZM12.2648 6.97367V5.90446H11.1961V6.97367H12.2648ZM7.14712 6.97367V5.90446H6.06866V6.97367H7.14712ZM5.32358 10.2794H7.89219V12.8494H5.32358V10.2794ZM13.7353 10.6129V9.54369H12.6667V10.6129H13.7353ZM10.7844 10.6129V9.54369H9.71572V10.6129H10.7844ZM7.14712 12.0941V11.0249H6.06866V12.0941H7.14712ZM12.2648 12.0941V11.0249H11.1863V12.0941H12.2648ZM12.6961 17.9993H15.0883C17.1471 17.9993 18.1667 16.9791 18.1667 14.9584V12.565C18.1667 12.0451 17.8824 11.7606 17.3726 11.7606C16.8628 11.7606 16.5883 12.0451 16.5883 12.565V14.8799C16.5883 15.9001 16.0294 16.42 15.0687 16.42H12.6961C12.1765 16.42 11.8922 16.7045 11.8922 17.2145C11.8922 17.7148 12.1765 17.9993 12.6961 17.9993ZM3.24514 17.9993H5.64709C6.15692 17.9993 6.44124 17.7148 6.44124 17.2145C6.44124 16.7045 6.15692 16.42 5.64709 16.42H3.27459C2.29418 16.42 1.74516 15.9001 1.74516 14.8799V12.565C1.74516 12.0451 1.46084 11.7606 0.960847 11.7606C0.441236 11.7606 0.166748 12.0451 0.166748 12.565V14.9584C0.166748 16.9889 1.20597 17.9993 3.24514 17.9993ZM10.7844 13.5753V12.5061H9.71572V13.5753H10.7844ZM13.7353 13.5753V12.5061H12.6667V13.5753H13.7353ZM13.8628 8.15079V4.72734C13.8628 4.49192 13.6765 4.29572 13.4314 4.29572H10.0196C9.77454 4.29572 9.58827 4.49192 9.58827 4.72734V8.15079C9.58827 8.38621 9.77454 8.57258 10.0196 8.57258H13.4314C13.6765 8.57258 13.8628 8.38621 13.8628 8.15079ZM5.32358 5.14914H7.89219V7.71916H5.32358V5.14914ZM8.74514 13.2712V9.84779C8.74514 9.61237 8.55888 9.426 8.31375 9.426H4.90202C4.65694 9.426 4.47063 9.61237 4.47063 9.84779V13.2712C4.47063 13.5067 4.65694 13.7028 4.90202 13.7028H8.31375C8.55888 13.7028 8.74514 13.5067 8.74514 13.2712Z" fill="#F7F7F7"/>
</svg>
